<mxfile host="app.diagrams.net" modified="2024-06-17T09:47:20.941Z" agent="Mozilla/5.0 (Windows NT 10.0; Win64; x64) AppleWebKit/537.36 (KHTML, like Gecko) Chrome/126.0.0.0 Safari/537.36" etag="bea1GTN_sB8IrfQYJ6g6" version="24.5.4" type="github">
  <diagram name="Page-1" id="hwscTh8wfo5yHInTTsTt">
    <mxGraphModel dx="2514" dy="878" grid="1" gridSize="10" guides="1" tooltips="1" connect="1" arrows="1" fold="1" page="1" pageScale="1" pageWidth="827" pageHeight="1169" math="0" shadow="0">
      <root>
        <mxCell id="0" />
        <mxCell id="1" parent="0" />
        <mxCell id="YMqknbH3aWcm6w3yvIrp-57" style="edgeStyle=orthogonalEdgeStyle;rounded=0;orthogonalLoop=1;jettySize=auto;html=1;startArrow=diamondThin;startFill=0;sourcePerimeterSpacing=6;targetPerimeterSpacing=5;endSize=12;startSize=20;endArrow=open;endFill=0;dashed=1;dashPattern=12 12;exitX=0.204;exitY=0.987;exitDx=0;exitDy=0;exitPerimeter=0;entryX=1.016;entryY=0.25;entryDx=0;entryDy=0;entryPerimeter=0;" edge="1" parent="1" source="YMqknbH3aWcm6w3yvIrp-15" target="YMqknbH3aWcm6w3yvIrp-18">
          <mxGeometry relative="1" as="geometry">
            <mxPoint x="1106" y="1588" as="targetPoint" />
            <Array as="points">
              <mxPoint x="743" y="1552" />
            </Array>
          </mxGeometry>
        </mxCell>
        <mxCell id="YMqknbH3aWcm6w3yvIrp-12" value="WSLManager" style="swimlane;fontStyle=1;align=center;verticalAlign=top;childLayout=stackLayout;horizontal=1;startSize=26;horizontalStack=0;resizeParent=1;resizeParentMax=0;resizeLast=0;collapsible=1;marginBottom=0;whiteSpace=wrap;html=1;" vertex="1" parent="1">
          <mxGeometry x="680" y="1340" width="310" height="140" as="geometry" />
        </mxCell>
        <mxCell id="YMqknbH3aWcm6w3yvIrp-13" value="- instances : List&amp;lt;WSLInstance&amp;gt;" style="text;strokeColor=none;fillColor=none;align=left;verticalAlign=top;spacingLeft=4;spacingRight=4;overflow=hidden;rotatable=0;points=[[0,0.5],[1,0.5]];portConstraint=eastwest;whiteSpace=wrap;html=1;" vertex="1" parent="YMqknbH3aWcm6w3yvIrp-12">
          <mxGeometry y="26" width="310" height="22" as="geometry" />
        </mxCell>
        <mxCell id="YMqknbH3aWcm6w3yvIrp-14" value="" style="line;strokeWidth=1;fillColor=none;align=left;verticalAlign=middle;spacingTop=-1;spacingLeft=3;spacingRight=3;rotatable=0;labelPosition=right;points=[];portConstraint=eastwest;strokeColor=inherit;" vertex="1" parent="YMqknbH3aWcm6w3yvIrp-12">
          <mxGeometry y="48" width="310" height="8" as="geometry" />
        </mxCell>
        <mxCell id="YMqknbH3aWcm6w3yvIrp-15" value="+ startWSL(name : String)&lt;div&gt;+ stopWSL(name : String)&lt;/div&gt;&lt;div&gt;+ deleteWSL(name : String)&lt;/div&gt;&lt;div&gt;+ listWSL(List : List&amp;lt;WSLInstance)&lt;/div&gt;&lt;div&gt;+ installApp(Instance WSLInstance, appName : String)&lt;/div&gt;" style="text;strokeColor=none;fillColor=none;align=left;verticalAlign=top;spacingLeft=4;spacingRight=4;overflow=hidden;rotatable=0;points=[[0,0.5],[1,0.5]];portConstraint=eastwest;whiteSpace=wrap;html=1;" vertex="1" parent="YMqknbH3aWcm6w3yvIrp-12">
          <mxGeometry y="56" width="310" height="84" as="geometry" />
        </mxCell>
        <mxCell id="YMqknbH3aWcm6w3yvIrp-16" value="WSLInstance" style="swimlane;fontStyle=1;align=center;verticalAlign=top;childLayout=stackLayout;horizontal=1;startSize=26;horizontalStack=0;resizeParent=1;resizeParentMax=0;resizeLast=0;collapsible=1;marginBottom=0;whiteSpace=wrap;html=1;" vertex="1" parent="1">
          <mxGeometry x="480" y="1460" width="160" height="178" as="geometry" />
        </mxCell>
        <mxCell id="YMqknbH3aWcm6w3yvIrp-17" value="+ name : String&lt;div&gt;+ state : String&lt;/div&gt;&lt;div&gt;+ RAMUsage : int&lt;/div&gt;&lt;div&gt;+ CPUUsage : int&lt;/div&gt;" style="text;strokeColor=none;fillColor=none;align=left;verticalAlign=top;spacingLeft=4;spacingRight=4;overflow=hidden;rotatable=0;points=[[0,0.5],[1,0.5]];portConstraint=eastwest;whiteSpace=wrap;html=1;" vertex="1" parent="YMqknbH3aWcm6w3yvIrp-16">
          <mxGeometry y="26" width="160" height="64" as="geometry" />
        </mxCell>
        <mxCell id="YMqknbH3aWcm6w3yvIrp-18" value="" style="line;strokeWidth=1;fillColor=none;align=left;verticalAlign=middle;spacingTop=-1;spacingLeft=3;spacingRight=3;rotatable=0;labelPosition=right;points=[];portConstraint=eastwest;strokeColor=inherit;" vertex="1" parent="YMqknbH3aWcm6w3yvIrp-16">
          <mxGeometry y="90" width="160" height="8" as="geometry" />
        </mxCell>
        <mxCell id="YMqknbH3aWcm6w3yvIrp-19" value="&lt;div&gt;&lt;div&gt;+ start()&lt;/div&gt;&lt;div&gt;+ stop ()&lt;/div&gt;&lt;div&gt;+ delete()&amp;nbsp;&lt;/div&gt;&lt;div&gt;+ getRAMUsage()&lt;/div&gt;&lt;div&gt;+ getCPUUsage()&lt;/div&gt;&lt;/div&gt;" style="text;strokeColor=none;fillColor=none;align=left;verticalAlign=top;spacingLeft=4;spacingRight=4;overflow=hidden;rotatable=0;points=[[0,0.5],[1,0.5]];portConstraint=eastwest;whiteSpace=wrap;html=1;" vertex="1" parent="YMqknbH3aWcm6w3yvIrp-16">
          <mxGeometry y="98" width="160" height="80" as="geometry" />
        </mxCell>
        <mxCell id="YMqknbH3aWcm6w3yvIrp-21" value="ApplicationInstaller" style="swimlane;fontStyle=1;align=center;verticalAlign=top;childLayout=stackLayout;horizontal=1;startSize=26;horizontalStack=0;resizeParent=1;resizeParentMax=0;resizeLast=0;collapsible=1;marginBottom=0;whiteSpace=wrap;html=1;" vertex="1" parent="1">
          <mxGeometry x="704" y="1660" width="210" height="60" as="geometry" />
        </mxCell>
        <mxCell id="YMqknbH3aWcm6w3yvIrp-24" value="+ installApp(Instance WSLInstance)" style="text;strokeColor=none;fillColor=none;align=left;verticalAlign=top;spacingLeft=4;spacingRight=4;overflow=hidden;rotatable=0;points=[[0,0.5],[1,0.5]];portConstraint=eastwest;whiteSpace=wrap;html=1;" vertex="1" parent="YMqknbH3aWcm6w3yvIrp-21">
          <mxGeometry y="26" width="210" height="34" as="geometry" />
        </mxCell>
        <mxCell id="YMqknbH3aWcm6w3yvIrp-25" value="ResourcesMonitor" style="swimlane;fontStyle=1;align=center;verticalAlign=top;childLayout=stackLayout;horizontal=1;startSize=26;horizontalStack=0;resizeParent=1;resizeParentMax=0;resizeLast=0;collapsible=1;marginBottom=0;whiteSpace=wrap;html=1;" vertex="1" parent="1">
          <mxGeometry x="-180" y="1670" width="280" height="70" as="geometry" />
        </mxCell>
        <mxCell id="YMqknbH3aWcm6w3yvIrp-27" value="+ getRAMUsage(instance: WSLInstance) : int&lt;div&gt;+ getCPUUsage&lt;span style=&quot;background-color: initial;&quot;&gt;(instance: WSLInstance) : int&lt;/span&gt;&lt;/div&gt;&lt;div&gt;&lt;br&gt;&lt;/div&gt;" style="text;strokeColor=none;fillColor=none;align=left;verticalAlign=top;spacingLeft=4;spacingRight=4;overflow=hidden;rotatable=0;points=[[0,0.5],[1,0.5]];portConstraint=eastwest;whiteSpace=wrap;html=1;" vertex="1" parent="YMqknbH3aWcm6w3yvIrp-25">
          <mxGeometry y="26" width="280" height="44" as="geometry" />
        </mxCell>
        <mxCell id="YMqknbH3aWcm6w3yvIrp-28" value="FileTransfer" style="swimlane;fontStyle=1;align=center;verticalAlign=top;childLayout=stackLayout;horizontal=1;startSize=26;horizontalStack=0;resizeParent=1;resizeParentMax=0;resizeLast=0;collapsible=1;marginBottom=0;whiteSpace=wrap;html=1;" vertex="1" parent="1">
          <mxGeometry x="160" y="1670" width="300" height="60" as="geometry" />
        </mxCell>
        <mxCell id="YMqknbH3aWcm6w3yvIrp-30" value="        + transferFile(instance: WSLInstance, filePath: String)&lt;div&gt;&lt;br&gt;&lt;/div&gt;" style="text;strokeColor=none;fillColor=none;align=left;verticalAlign=top;spacingLeft=4;spacingRight=4;overflow=hidden;rotatable=0;points=[[0,0.5],[1,0.5]];portConstraint=eastwest;whiteSpace=wrap;html=1;" vertex="1" parent="YMqknbH3aWcm6w3yvIrp-28">
          <mxGeometry y="26" width="300" height="34" as="geometry" />
        </mxCell>
        <mxCell id="YMqknbH3aWcm6w3yvIrp-31" value="WSLViewModel" style="swimlane;fontStyle=1;align=center;verticalAlign=top;childLayout=stackLayout;horizontal=1;startSize=26;horizontalStack=0;resizeParent=1;resizeParentMax=0;resizeLast=0;collapsible=1;marginBottom=0;whiteSpace=wrap;html=1;" vertex="1" parent="1">
          <mxGeometry x="680" y="1120" width="300" height="150" as="geometry" />
        </mxCell>
        <mxCell id="YMqknbH3aWcm6w3yvIrp-32" value="+ manager : WSLManager" style="text;strokeColor=none;fillColor=none;align=left;verticalAlign=top;spacingLeft=4;spacingRight=4;overflow=hidden;rotatable=0;points=[[0,0.5],[1,0.5]];portConstraint=eastwest;whiteSpace=wrap;html=1;" vertex="1" parent="YMqknbH3aWcm6w3yvIrp-31">
          <mxGeometry y="26" width="300" height="26" as="geometry" />
        </mxCell>
        <mxCell id="YMqknbH3aWcm6w3yvIrp-33" value="" style="line;strokeWidth=1;fillColor=none;align=left;verticalAlign=middle;spacingTop=-1;spacingLeft=3;spacingRight=3;rotatable=0;labelPosition=right;points=[];portConstraint=eastwest;strokeColor=inherit;" vertex="1" parent="YMqknbH3aWcm6w3yvIrp-31">
          <mxGeometry y="52" width="300" height="8" as="geometry" />
        </mxCell>
        <mxCell id="YMqknbH3aWcm6w3yvIrp-34" value="&lt;div&gt;+ startWSL(name: String)&lt;br&gt;        + stopWSL(name: String)&lt;br&gt;        + deleteWSL(name: String)&lt;br&gt;        + listWSL() : List~WSLInstance~&lt;br&gt;        + installApp(instance: WSLInstance, appName: String)&lt;br&gt;&lt;/div&gt;" style="text;strokeColor=none;fillColor=none;align=left;verticalAlign=top;spacingLeft=4;spacingRight=4;overflow=hidden;rotatable=0;points=[[0,0.5],[1,0.5]];portConstraint=eastwest;whiteSpace=wrap;html=1;" vertex="1" parent="YMqknbH3aWcm6w3yvIrp-31">
          <mxGeometry y="60" width="300" height="90" as="geometry" />
        </mxCell>
        <mxCell id="YMqknbH3aWcm6w3yvIrp-35" value="ResourceMonitorViewModel" style="swimlane;fontStyle=1;align=center;verticalAlign=top;childLayout=stackLayout;horizontal=1;startSize=26;horizontalStack=0;resizeParent=1;resizeParentMax=0;resizeLast=0;collapsible=1;marginBottom=0;whiteSpace=wrap;html=1;" vertex="1" parent="1">
          <mxGeometry x="-175" y="1455" width="270" height="100" as="geometry" />
        </mxCell>
        <mxCell id="YMqknbH3aWcm6w3yvIrp-36" value="+ resourceMonitor: ResourceMonitor" style="text;strokeColor=none;fillColor=none;align=left;verticalAlign=top;spacingLeft=4;spacingRight=4;overflow=hidden;rotatable=0;points=[[0,0.5],[1,0.5]];portConstraint=eastwest;whiteSpace=wrap;html=1;" vertex="1" parent="YMqknbH3aWcm6w3yvIrp-35">
          <mxGeometry y="26" width="270" height="26" as="geometry" />
        </mxCell>
        <mxCell id="YMqknbH3aWcm6w3yvIrp-37" value="" style="line;strokeWidth=1;fillColor=none;align=left;verticalAlign=middle;spacingTop=-1;spacingLeft=3;spacingRight=3;rotatable=0;labelPosition=right;points=[];portConstraint=eastwest;strokeColor=inherit;" vertex="1" parent="YMqknbH3aWcm6w3yvIrp-35">
          <mxGeometry y="52" width="270" height="8" as="geometry" />
        </mxCell>
        <mxCell id="YMqknbH3aWcm6w3yvIrp-38" value="+ getRAMUsage(instance: WSLInstance) : int&lt;br&gt;        + getCPUUsage(instance: WSLInstance) : int" style="text;strokeColor=none;fillColor=none;align=left;verticalAlign=top;spacingLeft=4;spacingRight=4;overflow=hidden;rotatable=0;points=[[0,0.5],[1,0.5]];portConstraint=eastwest;whiteSpace=wrap;html=1;" vertex="1" parent="YMqknbH3aWcm6w3yvIrp-35">
          <mxGeometry y="60" width="270" height="40" as="geometry" />
        </mxCell>
        <mxCell id="YMqknbH3aWcm6w3yvIrp-39" value="FileTransferViewModel" style="swimlane;fontStyle=1;align=center;verticalAlign=top;childLayout=stackLayout;horizontal=1;startSize=26;horizontalStack=0;resizeParent=1;resizeParentMax=0;resizeLast=0;collapsible=1;marginBottom=0;whiteSpace=wrap;html=1;" vertex="1" parent="1">
          <mxGeometry x="160" y="1465" width="300" height="90" as="geometry" />
        </mxCell>
        <mxCell id="YMqknbH3aWcm6w3yvIrp-40" value="+ fileTransfer : FileTransfer" style="text;strokeColor=none;fillColor=none;align=left;verticalAlign=top;spacingLeft=4;spacingRight=4;overflow=hidden;rotatable=0;points=[[0,0.5],[1,0.5]];portConstraint=eastwest;whiteSpace=wrap;html=1;" vertex="1" parent="YMqknbH3aWcm6w3yvIrp-39">
          <mxGeometry y="26" width="300" height="26" as="geometry" />
        </mxCell>
        <mxCell id="YMqknbH3aWcm6w3yvIrp-41" value="" style="line;strokeWidth=1;fillColor=none;align=left;verticalAlign=middle;spacingTop=-1;spacingLeft=3;spacingRight=3;rotatable=0;labelPosition=right;points=[];portConstraint=eastwest;strokeColor=inherit;" vertex="1" parent="YMqknbH3aWcm6w3yvIrp-39">
          <mxGeometry y="52" width="300" height="8" as="geometry" />
        </mxCell>
        <mxCell id="YMqknbH3aWcm6w3yvIrp-42" value="&lt;div&gt;        + transferFile(instance: WSLInstance, filePath: String)&lt;br/&gt;&lt;/div&gt;" style="text;strokeColor=none;fillColor=none;align=left;verticalAlign=top;spacingLeft=4;spacingRight=4;overflow=hidden;rotatable=0;points=[[0,0.5],[1,0.5]];portConstraint=eastwest;whiteSpace=wrap;html=1;" vertex="1" parent="YMqknbH3aWcm6w3yvIrp-39">
          <mxGeometry y="60" width="300" height="30" as="geometry" />
        </mxCell>
        <mxCell id="YMqknbH3aWcm6w3yvIrp-43" value="MainWindow" style="swimlane;fontStyle=1;align=center;verticalAlign=top;childLayout=stackLayout;horizontal=1;startSize=26;horizontalStack=0;resizeParent=1;resizeParentMax=0;resizeLast=0;collapsible=1;marginBottom=0;whiteSpace=wrap;html=1;" vertex="1" parent="1">
          <mxGeometry x="30" y="1120" width="220" height="56" as="geometry" />
        </mxCell>
        <mxCell id="YMqknbH3aWcm6w3yvIrp-46" value="&lt;div&gt;&lt;br&gt;&lt;/div&gt;&lt;div&gt;&lt;br&gt;&lt;/div&gt;" style="text;strokeColor=none;fillColor=none;align=left;verticalAlign=top;spacingLeft=4;spacingRight=4;overflow=hidden;rotatable=0;points=[[0,0.5],[1,0.5]];portConstraint=eastwest;whiteSpace=wrap;html=1;" vertex="1" parent="YMqknbH3aWcm6w3yvIrp-43">
          <mxGeometry y="26" width="220" height="30" as="geometry" />
        </mxCell>
        <mxCell id="YMqknbH3aWcm6w3yvIrp-47" value="WSLInstanceView" style="swimlane;fontStyle=1;align=center;verticalAlign=top;childLayout=stackLayout;horizontal=1;startSize=26;horizontalStack=0;resizeParent=1;resizeParentMax=0;resizeLast=0;collapsible=1;marginBottom=0;whiteSpace=wrap;html=1;" vertex="1" parent="1">
          <mxGeometry x="350" y="1120" width="220" height="56" as="geometry" />
        </mxCell>
        <mxCell id="YMqknbH3aWcm6w3yvIrp-50" value="&lt;div&gt;&lt;br&gt;&lt;/div&gt;&lt;div&gt;&lt;br&gt;&lt;/div&gt;" style="text;strokeColor=none;fillColor=none;align=left;verticalAlign=top;spacingLeft=4;spacingRight=4;overflow=hidden;rotatable=0;points=[[0,0.5],[1,0.5]];portConstraint=eastwest;whiteSpace=wrap;html=1;" vertex="1" parent="YMqknbH3aWcm6w3yvIrp-47">
          <mxGeometry y="26" width="220" height="30" as="geometry" />
        </mxCell>
        <mxCell id="YMqknbH3aWcm6w3yvIrp-55" value="FileTransferView" style="swimlane;fontStyle=1;align=center;verticalAlign=top;childLayout=stackLayout;horizontal=1;startSize=26;horizontalStack=0;resizeParent=1;resizeParentMax=0;resizeLast=0;collapsible=1;marginBottom=0;whiteSpace=wrap;html=1;" vertex="1" parent="1">
          <mxGeometry x="230" y="1314" width="160" height="62" as="geometry" />
        </mxCell>
        <mxCell id="YMqknbH3aWcm6w3yvIrp-56" value="&lt;div&gt;&lt;br&gt;&lt;/div&gt;&lt;div&gt;&lt;br&gt;&lt;/div&gt;" style="text;strokeColor=none;fillColor=none;align=left;verticalAlign=top;spacingLeft=4;spacingRight=4;overflow=hidden;rotatable=0;points=[[0,0.5],[1,0.5]];portConstraint=eastwest;whiteSpace=wrap;html=1;" vertex="1" parent="YMqknbH3aWcm6w3yvIrp-55">
          <mxGeometry y="26" width="160" height="36" as="geometry" />
        </mxCell>
        <mxCell id="YMqknbH3aWcm6w3yvIrp-59" style="edgeStyle=orthogonalEdgeStyle;rounded=0;orthogonalLoop=1;jettySize=auto;html=1;dashed=1;dashPattern=12 12;startSize=8;endSize=12;endArrow=blockThin;endFill=1;exitX=0.504;exitY=1.006;exitDx=0;exitDy=0;exitPerimeter=0;" edge="1" parent="1" source="YMqknbH3aWcm6w3yvIrp-34">
          <mxGeometry relative="1" as="geometry">
            <mxPoint x="835" y="1290" as="sourcePoint" />
            <mxPoint x="830" y="1340" as="targetPoint" />
            <Array as="points">
              <mxPoint x="830" y="1271" />
              <mxPoint x="830" y="1340" />
            </Array>
          </mxGeometry>
        </mxCell>
        <mxCell id="YMqknbH3aWcm6w3yvIrp-60" style="edgeStyle=orthogonalEdgeStyle;rounded=0;orthogonalLoop=1;jettySize=auto;html=1;exitX=0.503;exitY=1.073;exitDx=0;exitDy=0;endArrow=open;endFill=0;dashed=1;dashPattern=12 12;exitPerimeter=0;endSize=12;entryX=0.5;entryY=0;entryDx=0;entryDy=0;" edge="1" parent="1" source="YMqknbH3aWcm6w3yvIrp-38" target="YMqknbH3aWcm6w3yvIrp-25">
          <mxGeometry relative="1" as="geometry">
            <mxPoint x="70" y="1620" as="targetPoint" />
            <Array as="points">
              <mxPoint x="-39" y="1660" />
            </Array>
          </mxGeometry>
        </mxCell>
        <mxCell id="YMqknbH3aWcm6w3yvIrp-62" style="edgeStyle=orthogonalEdgeStyle;rounded=0;orthogonalLoop=1;jettySize=auto;html=1;exitX=0.498;exitY=1.011;exitDx=0;exitDy=0;entryX=0.5;entryY=0;entryDx=0;entryDy=0;dashed=1;dashPattern=12 12;endArrow=open;endFill=0;exitPerimeter=0;endSize=12;" edge="1" parent="1" source="YMqknbH3aWcm6w3yvIrp-42" target="YMqknbH3aWcm6w3yvIrp-28">
          <mxGeometry relative="1" as="geometry">
            <mxPoint x="730" y="1325.5294117647059" as="targetPoint" />
          </mxGeometry>
        </mxCell>
        <mxCell id="YMqknbH3aWcm6w3yvIrp-63" style="edgeStyle=orthogonalEdgeStyle;rounded=0;orthogonalLoop=1;jettySize=auto;html=1;exitX=0.5;exitY=0;exitDx=0;exitDy=0;entryX=0;entryY=0.5;entryDx=0;entryDy=0;endArrow=none;endFill=0;" edge="1" parent="1" source="YMqknbH3aWcm6w3yvIrp-16" target="YMqknbH3aWcm6w3yvIrp-34">
          <mxGeometry relative="1" as="geometry">
            <Array as="points">
              <mxPoint x="560" y="1215" />
            </Array>
          </mxGeometry>
        </mxCell>
        <mxCell id="YMqknbH3aWcm6w3yvIrp-69" value="ResourceMonitorView" style="swimlane;fontStyle=1;align=center;verticalAlign=top;childLayout=stackLayout;horizontal=1;startSize=26;horizontalStack=0;resizeParent=1;resizeParentMax=0;resizeLast=0;collapsible=1;marginBottom=0;whiteSpace=wrap;html=1;" vertex="1" parent="1">
          <mxGeometry x="-120" y="1314" width="160" height="62" as="geometry" />
        </mxCell>
        <mxCell id="YMqknbH3aWcm6w3yvIrp-70" value="&lt;div&gt;&lt;br&gt;&lt;/div&gt;&lt;div&gt;&lt;br&gt;&lt;/div&gt;" style="text;strokeColor=none;fillColor=none;align=left;verticalAlign=top;spacingLeft=4;spacingRight=4;overflow=hidden;rotatable=0;points=[[0,0.5],[1,0.5]];portConstraint=eastwest;whiteSpace=wrap;html=1;" vertex="1" parent="YMqknbH3aWcm6w3yvIrp-69">
          <mxGeometry y="26" width="160" height="36" as="geometry" />
        </mxCell>
        <mxCell id="YMqknbH3aWcm6w3yvIrp-71" style="edgeStyle=orthogonalEdgeStyle;rounded=0;orthogonalLoop=1;jettySize=auto;html=1;exitX=0.498;exitY=1.005;exitDx=0;exitDy=0;entryX=0.5;entryY=0;entryDx=0;entryDy=0;endArrow=none;endFill=0;exitPerimeter=0;" edge="1" parent="1" source="YMqknbH3aWcm6w3yvIrp-70" target="YMqknbH3aWcm6w3yvIrp-35">
          <mxGeometry relative="1" as="geometry" />
        </mxCell>
        <mxCell id="YMqknbH3aWcm6w3yvIrp-72" style="edgeStyle=orthogonalEdgeStyle;rounded=0;orthogonalLoop=1;jettySize=auto;html=1;exitX=0.503;exitY=1.009;exitDx=0;exitDy=0;endArrow=none;endFill=0;exitPerimeter=0;" edge="1" parent="1" source="YMqknbH3aWcm6w3yvIrp-56" target="YMqknbH3aWcm6w3yvIrp-39">
          <mxGeometry relative="1" as="geometry" />
        </mxCell>
        <mxCell id="YMqknbH3aWcm6w3yvIrp-74" style="edgeStyle=orthogonalEdgeStyle;rounded=0;orthogonalLoop=1;jettySize=auto;html=1;exitX=0.247;exitY=1.095;exitDx=0;exitDy=0;entryX=0.5;entryY=0;entryDx=0;entryDy=0;endArrow=none;endFill=0;startArrow=diamondThin;startFill=1;startSize=20;exitPerimeter=0;" edge="1" parent="1" source="YMqknbH3aWcm6w3yvIrp-46" target="YMqknbH3aWcm6w3yvIrp-69">
          <mxGeometry relative="1" as="geometry">
            <Array as="points">
              <mxPoint x="84" y="1250" />
              <mxPoint x="-40" y="1250" />
            </Array>
          </mxGeometry>
        </mxCell>
        <mxCell id="YMqknbH3aWcm6w3yvIrp-73" value="&lt;div&gt;&lt;br&gt;&lt;/div&gt;" style="edgeStyle=orthogonalEdgeStyle;rounded=0;orthogonalLoop=1;jettySize=auto;html=1;exitX=0.998;exitY=0.136;exitDx=0;exitDy=0;endArrow=none;endFill=0;startSize=20;endSize=20;startArrow=diamondThin;startFill=1;entryX=-0.001;entryY=0.107;entryDx=0;entryDy=0;entryPerimeter=0;exitPerimeter=0;" edge="1" parent="1" source="YMqknbH3aWcm6w3yvIrp-46" target="YMqknbH3aWcm6w3yvIrp-50">
          <mxGeometry y="9" relative="1" as="geometry">
            <mxPoint x="251.9700000000001" y="1150.02" as="sourcePoint" />
            <mxPoint x="349.99000000000007" y="1145.97" as="targetPoint" />
            <Array as="points">
              <mxPoint x="350" y="1150" />
            </Array>
            <mxPoint as="offset" />
          </mxGeometry>
        </mxCell>
        <mxCell id="YMqknbH3aWcm6w3yvIrp-76" style="edgeStyle=orthogonalEdgeStyle;rounded=0;orthogonalLoop=1;jettySize=auto;html=1;exitX=0.745;exitY=0.996;exitDx=0;exitDy=0;entryX=0.5;entryY=0;entryDx=0;entryDy=0;endArrow=none;endFill=0;startArrow=diamondThin;startFill=1;startSize=20;exitPerimeter=0;" edge="1" parent="1" source="YMqknbH3aWcm6w3yvIrp-46" target="YMqknbH3aWcm6w3yvIrp-55">
          <mxGeometry relative="1" as="geometry">
            <Array as="points">
              <mxPoint x="194" y="1250" />
              <mxPoint x="310" y="1250" />
            </Array>
          </mxGeometry>
        </mxCell>
        <mxCell id="YMqknbH3aWcm6w3yvIrp-78" style="edgeStyle=orthogonalEdgeStyle;rounded=0;orthogonalLoop=1;jettySize=auto;html=1;exitX=1;exitY=0.5;exitDx=0;exitDy=0;entryX=0;entryY=0.5;entryDx=0;entryDy=0;endArrow=none;endFill=0;" edge="1" parent="1" source="YMqknbH3aWcm6w3yvIrp-50" target="YMqknbH3aWcm6w3yvIrp-32">
          <mxGeometry relative="1" as="geometry">
            <Array as="points">
              <mxPoint x="640" y="1161" />
              <mxPoint x="680" y="1160" />
            </Array>
          </mxGeometry>
        </mxCell>
        <mxCell id="YMqknbH3aWcm6w3yvIrp-79" style="edgeStyle=orthogonalEdgeStyle;rounded=0;orthogonalLoop=1;jettySize=auto;html=1;dashed=1;dashPattern=12 12;endArrow=classic;endFill=0;endSize=12;" edge="1" parent="1">
          <mxGeometry relative="1" as="geometry">
            <mxPoint x="810" y="1455" as="sourcePoint" />
            <mxPoint x="810" y="1660" as="targetPoint" />
            <Array as="points">
              <mxPoint x="810" y="1455" />
            </Array>
          </mxGeometry>
        </mxCell>
      </root>
    </mxGraphModel>
  </diagram>
</mxfile>
